<svg xmlns="http://www.w3.org/2000/svg" xmlns:xlink="http://www.w3.org/1999/xlink" width="1010pt" height="1364" viewBox="0 0 1010 1023"><g id="graph0" class="graph" transform="scale(1 1) rotate(0) translate(4 1019)"><title>DataFrameDAG</title><polygon fill="#fff" stroke="none" points="-4 4 -4 -1019 1006 -1019 1006 4 -4 4"/><g id="clust1" class="cluster"><title>clusterSTAGE1</title><polygon fill="none" stroke="#000" points="8 -414 8 -1007 380 -1007 380 -414 8 -414"/><text x="194" y="-991.8" font-family="Times,serif" font-size="14" text-anchor="middle">Stage 1</text></g><g id="clust2" class="cluster"><title>clusterSTAGE2</title><polygon fill="none" stroke="#000" points="388 -8 388 -536 994 -536 994 -8 388 -8"/><text x="691" y="-520.8" font-family="Times,serif" font-size="14" text-anchor="middle">Stage 2</text></g><g id="node1" class="node"><title>START</title><ellipse cx="182" cy="-959" fill="pink" stroke="#000" rx="27" ry="18"/><text x="182" y="-954.8" font-family="Times,serif" font-size="14" text-anchor="middle">start</text></g><g id="node2" class="node"><title>EXPR1</title><polygon fill="#d3d3d3" stroke="#000" points="108.474 -868.5 108.474 -904.5 255.526 -904.5 255.526 -868.5 108.474 -868.5"/><text x="182" y="-882.3" font-family="Times,serif" font-size="14" text-anchor="middle">Collection: pyodps_iris</text></g><g id="edge1" class="edge"><title>START-&gt;EXPR1</title><path fill="none" stroke="#000" d="M182,-940.934C182,-933.17 182,-923.784 182,-915.06"/><polygon fill="#000" stroke="#000" points="185.5 -914.899 182 -904.899 178.5 -914.899 185.5 -914.899"/></g><g id="node3" class="node"><title>EXPR2</title><polygon fill="none" stroke="#000" points="35.569 -662.5 35.569 -728.5 204.431 -728.5 204.431 -662.5 35.569 -662.5"/><text x="97.61" y="-713.3" font-family="Times,serif" font-size="14" text-anchor="middle">Column[Sequence]</text><polyline fill="none" stroke="#000" points="35.569 -706.5 159.652 -706.5"/><text x="97.61" y="-691.3" font-family="Times,serif" font-size="14" text-anchor="middle">name: name</text><polyline fill="none" stroke="#000" points="35.569 -684.5 159.652 -684.5"/><text x="97.61" y="-669.3" font-family="Times,serif" font-size="14" text-anchor="middle">type: STRING</text><polyline fill="none" stroke="#000" points="159.652 -662.5 159.652 -728.5"/><text x="182.042" y="-691.3" font-family="Times,serif" font-size="14" text-anchor="middle">input</text></g><g id="edge2" class="edge"><title>EXPR1-&gt;EXPR2:f0</title><path fill="none" stroke="#000" d="M182,-868.131C182,-841.17 182,-787.331 182,-739.178"/><polygon fill="#000" stroke="#000" points="185.5 -739 182 -729 178.5 -739 185.5 -739"/></g><g id="node4" class="node"><title>EXPR3</title><polygon fill="none" stroke="#000" points="201.569 -765.5 201.569 -831.5 370.431 -831.5 370.431 -765.5 201.569 -765.5"/><text x="263.61" y="-816.3" font-family="Times,serif" font-size="14" text-anchor="middle">Column[Sequence]</text><polyline fill="none" stroke="#000" points="201.569 -809.5 325.652 -809.5"/><text x="263.61" y="-794.3" font-family="Times,serif" font-size="14" text-anchor="middle">name: sepalwidth</text><polyline fill="none" stroke="#000" points="201.569 -787.5 325.652 -787.5"/><text x="263.61" y="-772.3" font-family="Times,serif" font-size="14" text-anchor="middle">type: FLOAT64</text><polyline fill="none" stroke="#000" points="325.652 -765.5 325.652 -831.5"/><text x="348.042" y="-794.3" font-family="Times,serif" font-size="14" text-anchor="middle">input</text></g><g id="edge3" class="edge"><title>EXPR1-&gt;EXPR3:f0</title><path fill="none" stroke="#000" d="M255.777,-875.104C292.838,-868.084 332.382,-857.226 344.36,-841.693"/><polygon fill="#000" stroke="#000" points="347.761 -842.592 348 -832 341.208 -840.131 347.761 -842.592"/></g><g id="node6" class="node"><title>EXPR5</title><polygon fill="#d3d3d3" stroke="#000" points="16.031 -589.5 16.031 -625.5 345.969 -625.5 345.969 -589.5 16.031 -589.5"/><text x="83.91" y="-603.3" font-family="Times,serif" font-size="14" text-anchor="middle">GroupBy[Collection]</text><polyline fill="none" stroke="#000" points="151.79 -589.5 151.79 -625.5"/><text x="187.39" y="-603.3" font-family="Times,serif" font-size="14" text-anchor="middle">collection</text><polyline fill="none" stroke="#000" points="222.99 -589.5 222.99 -625.5"/><text x="240.714" y="-603.3" font-family="Times,serif" font-size="14" text-anchor="middle">bys</text><polyline fill="none" stroke="#000" points="258.438 -589.5 258.438 -625.5"/><text x="302.204" y="-603.3" font-family="Times,serif" font-size="14" text-anchor="middle">aggregations</text></g><g id="edge5" class="edge"><title>EXPR1-&gt;EXPR5:f0</title><path fill="none" stroke="#000" d="M154.083,-868.395C95.1558,-830.203 -31.8488,-735.561 27,-662 70.1322,-608.085 175.119,-689.414 186.072,-636.187"/><polygon fill="#000" stroke="#000" points="189.578 -636.276 187 -626 182.607 -635.641 189.578 -636.276"/></g><g id="edge6" class="edge"><title>EXPR2-&gt;EXPR5:f1</title><path fill="none" stroke="#000" d="M200.372,-662.465C216.959,-653.979 231.304,-644.618 237.599,-635.446"/><polygon fill="#000" stroke="#000" points="240.905 -636.594 241 -626 234.319 -634.223 240.905 -636.594"/></g><g id="node5" class="node"><title>EXPR4</title><polygon fill="none" stroke="#000" points="222.084 -662.5 222.084 -728.5 371.916 -728.5 371.916 -662.5 222.084 -662.5"/><text x="274.61" y="-713.3" font-family="Times,serif" font-size="14" text-anchor="middle">Sum[Sequence]</text><polyline fill="none" stroke="#000" points="222.084 -706.5 327.136 -706.5"/><text x="274.61" y="-691.3" font-family="Times,serif" font-size="14" text-anchor="middle">name: id</text><polyline fill="none" stroke="#000" points="222.084 -684.5 327.136 -684.5"/><text x="274.61" y="-669.3" font-family="Times,serif" font-size="14" text-anchor="middle">type: FLOAT64</text><polyline fill="none" stroke="#000" points="327.136 -662.5 327.136 -728.5"/><text x="349.526" y="-691.3" font-family="Times,serif" font-size="14" text-anchor="middle">input</text></g><g id="edge4" class="edge"><title>EXPR3-&gt;EXPR4:f0</title><path fill="none" stroke="#000" d="M333.518,-765.158C340.588,-757.564 346.324,-748.804 348.75,-739.062"/><polygon fill="#000" stroke="#000" points="352.241 -739.355 350 -729 345.294 -738.492 352.241 -739.355"/></g><g id="edge7" class="edge"><title>EXPR4-&gt;EXPR5:f3</title><path fill="none" stroke="#000" d="M300.307,-662.474C300.976,-654.216 301.558,-645.146 301.832,-636.27"/><polygon fill="#000" stroke="#000" points="305.336 -636.056 302 -626 298.337 -635.941 305.336 -636.056"/></g><g id="node7" class="node"><title>COMPILED5</title><polygon fill="#87ceeb" stroke="#000" points="53 -422.5 53 -552.5 309 -552.5 309 -422.5 53 -422.5"/><text x="65" y="-533.3" font-family="Times,serif" font-size="14" text-anchor="start">SELECT</text><text x="65" y="-513.3" font-family="Times,serif" font-size="14" text-anchor="start">t1.`name`,</text><text x="65" y="-493.3" font-family="Times,serif" font-size="14" text-anchor="start">SUM(t1.`sepalwidth`) AS `id`</text><text x="64.786" y="-473.3" font-family="Times,serif" font-size="14" text-anchor="start">FROM test_pyodps_dev.`pyodps_iris` t1</text><text x="65" y="-453.3" font-family="Times,serif" font-size="14" text-anchor="start">GROUP BY</text><text x="65" y="-433.3" font-family="Times,serif" font-size="14" text-anchor="start">t1.`name`</text></g><g id="edge8" class="edge"><title>EXPR5-&gt;COMPILED5</title><path fill="none" stroke="#000" stroke-dasharray="5 2" d="M181,-589.342C181,-579.434 181,-566.283 181,-552.761"/></g><g id="node8" class="node"><title>EXPR6</title><polygon fill="#d3d3d3" stroke="#000" points="407.965 -469.5 407.965 -505.5 892.035 -505.5 892.035 -469.5 407.965 -469.5"/><text x="650" y="-483.3" font-family="Times,serif" font-size="14" text-anchor="middle">Collection: tmp_pyodps_1463669897_6661de55_9d11_42d2_81c2_00c3b4956556</text></g><g id="edge9" class="edge"><title>EXPR5-&gt;EXPR6</title><path fill="none" stroke="#000" d="M248.696,-589.468C334.518,-567.875 482.141,-530.733 572.42,-508.019"/><polygon fill="#000" stroke="#000" points="573.481 -511.361 582.325 -505.527 571.773 -504.573 573.481 -511.361"/></g><g id="node9" class="node"><title>EXPR7</title><polygon fill="none" stroke="#000" points="557.569 -216.5 557.569 -282.5 726.431 -282.5 726.431 -216.5 557.569 -216.5"/><text x="619.61" y="-267.3" font-family="Times,serif" font-size="14" text-anchor="middle">Column[Sequence]</text><polyline fill="none" stroke="#000" points="557.569 -260.5 681.652 -260.5"/><text x="619.61" y="-245.3" font-family="Times,serif" font-size="14" text-anchor="middle">name: name</text><polyline fill="none" stroke="#000" points="557.569 -238.5 681.652 -238.5"/><text x="619.61" y="-223.3" font-family="Times,serif" font-size="14" text-anchor="middle">type: STRING</text><polyline fill="none" stroke="#000" points="681.652 -216.5 681.652 -282.5"/><text x="704.042" y="-245.3" font-family="Times,serif" font-size="14" text-anchor="middle">input</text></g><g id="edge10" class="edge"><title>EXPR6-&gt;EXPR7:f0</title><path fill="none" stroke="#000" d="M648.229,-469.334C645.738,-437.83 643.892,-369.392 668,-319 675.934,-302.415 694.741,-303.953 701.515,-292.976"/><polygon fill="#000" stroke="#000" points="704.978 -293.55 704 -283 698.186 -291.857 704.978 -293.55"/></g><g id="node10" class="node"><title>EXPR8</title><polygon fill="none" stroke="#000" points="676.569 -319.5 676.569 -385.5 845.431 -385.5 845.431 -319.5 676.569 -319.5"/><text x="738.61" y="-370.3" font-family="Times,serif" font-size="14" text-anchor="middle">Column[Sequence]</text><polyline fill="none" stroke="#000" points="676.569 -363.5 800.652 -363.5"/><text x="738.61" y="-348.3" font-family="Times,serif" font-size="14" text-anchor="middle">name: id</text><polyline fill="none" stroke="#000" points="676.569 -341.5 800.652 -341.5"/><text x="738.61" y="-326.3" font-family="Times,serif" font-size="14" text-anchor="middle">type: FLOAT64</text><polyline fill="none" stroke="#000" points="800.652 -319.5 800.652 -385.5"/><text x="823.042" y="-348.3" font-family="Times,serif" font-size="14" text-anchor="middle">input</text></g><g id="edge11" class="edge"><title>EXPR6-&gt;EXPR8:f0</title><path fill="none" stroke="#000" d="M737.007,-469.431C776.722,-456.486 816.294,-434.142 822.235,-396.032"/><polygon fill="#000" stroke="#000" points="825.729 -396.237 823 -386 818.749 -395.705 825.729 -396.237"/></g><g id="node13" class="node"><title>EXPR11</title><polygon fill="#d3d3d3" stroke="#000" points="472.2 -143.5 472.2 -179.5 755.8 -179.5 755.8 -143.5 472.2 -143.5"/><text x="542.796" y="-157.3" font-family="Times,serif" font-size="14" text-anchor="middle">Projection[Collection]</text><polyline fill="none" stroke="#000" points="613.393 -143.5 613.393 -179.5"/><text x="648.993" y="-157.3" font-family="Times,serif" font-size="14" text-anchor="middle">collection</text><polyline fill="none" stroke="#000" points="684.593 -143.5 684.593 -179.5"/><text x="720.197" y="-157.3" font-family="Times,serif" font-size="14" text-anchor="middle">selections</text></g><g id="edge14" class="edge"><title>EXPR6-&gt;EXPR11:f0</title><path fill="none" stroke="#000" d="M637.995,-469.321C615.212,-435.546 566.425,-357.304 549,-283 542.201,-254.009 531.877,-240.363 549,-216 573.828,-180.675 636.818,-219.317 647.461,-190.144"/><polygon fill="#000" stroke="#000" points="650.961 -190.412 649 -180 644.04 -189.362 650.961 -190.412"/></g><g id="edge15" class="edge"><title>EXPR7-&gt;EXPR11:f1</title><path fill="none" stroke="#000" d="M701.909,-216.332C709.846,-208.892 716.143,-200.143 718.727,-190.068"/><polygon fill="#000" stroke="#000" points="722.218 -190.36 720 -180 715.273 -189.482 722.218 -190.36"/></g><g id="node12" class="node"><title>EXPR10</title><polygon fill="none" stroke="#000" points="744.75 -216.5 744.75 -282.5 915.25 -282.5 915.25 -216.5 744.75 -216.5"/><text x="797.276" y="-267.3" font-family="Times,serif" font-size="14" text-anchor="middle">Add[Sequence]</text><polyline fill="none" stroke="#000" points="744.75 -260.5 849.802 -260.5"/><text x="797.276" y="-245.3" font-family="Times,serif" font-size="14" text-anchor="middle">name: id</text><polyline fill="none" stroke="#000" points="744.75 -238.5 849.802 -238.5"/><text x="797.276" y="-223.3" font-family="Times,serif" font-size="14" text-anchor="middle">type: FLOAT64</text><polyline fill="none" stroke="#000" points="849.802 -216.5 849.802 -282.5"/><text x="865.971" y="-245.3" font-family="Times,serif" font-size="14" text-anchor="middle">lhs</text><polyline fill="none" stroke="#000" points="882.14 -216.5 882.14 -282.5"/><text x="898.695" y="-245.3" font-family="Times,serif" font-size="14" text-anchor="middle">rhs</text></g><g id="edge12" class="edge"><title>EXPR8-&gt;EXPR10:f0</title><path fill="none" stroke="#000" d="M845.506,-320.693C854.843,-313.286 861.997,-304.228 864.759,-293.203"/><polygon fill="#000" stroke="#000" points="868.267 -293.35 866 -283 861.318 -292.504 868.267 -293.35"/></g><g id="node11" class="node"><title>EXPR9</title><polygon fill="none" stroke="#000" points="866.315 -334.5 866.315 -370.5 931.685 -370.5 931.685 -334.5 866.315 -334.5"/><text x="899" y="-348.3" font-family="Times,serif" font-size="14" text-anchor="middle">Scalar: 3</text></g><g id="edge13" class="edge"><title>EXPR9-&gt;EXPR10:f1</title><path fill="none" stroke="#000" d="M899,-334.328C899,-323.071 899,-307.763 899,-293.041"/><polygon fill="#000" stroke="#000" points="902.5 -293 899 -283 895.5 -293 902.5 -293"/></g><g id="edge16" class="edge"><title>EXPR10-&gt;EXPR11:f1</title><path fill="none" stroke="#000" d="M818.029,-216.104C807.899,-194.268 791.141,-168.43 767.004,-162.674"/><polygon fill="#000" stroke="#000" points="767.34 -159.19 757 -161.5 766.524 -166.142 767.34 -159.19"/></g><g id="node14" class="node"><title>COMPILED11</title><polygon fill="#87ceeb" stroke="#000" points="396.5 -16.5 396.5 -106.5 985.5 -106.5 985.5 -16.5 396.5 -16.5"/><text x="409" y="-87.3" font-family="Times,serif" font-size="14" text-anchor="start">SELECT</text><text x="409" y="-67.3" font-family="Times,serif" font-size="14" text-anchor="start">t1.`name`,</text><text x="409" y="-47.3" font-family="Times,serif" font-size="14" text-anchor="start">t1.`id` + 3 AS `id`</text><text x="408.526" y="-27.3" font-family="Times,serif" font-size="14" text-anchor="start">FROM test_pyodps_dev.`tmp_pyodps_1463669897_6661de55_9d11_42d2_81c2_00c3b4956556` t1</text></g><g id="edge17" class="edge"><title>EXPR11-&gt;COMPILED11</title><path fill="none" stroke="#000" stroke-dasharray="5 2" d="M627.412,-143.43C635.427,-133.23 646.01,-119.76 656.238,-106.742"/></g></g></svg>