<svg xmlns="http://www.w3.org/2000/svg" xmlns:xlink="http://www.w3.org/1999/xlink" width="611pt" height="960" viewBox="0 0 611.48 720"><g id="graph0" class="graph" transform="scale(1 1) rotate(0) translate(4 716)"><title>DataFrameDAG</title><polygon fill="#fff" stroke="none" points="-4 4 -4 -716 607.48 -716 607.48 4 -4 4"/><g id="clust1" class="cluster"><title>clusterSTAGE1</title><polygon fill="none" stroke="#000" points="15.48 -8 15.48 -704 595.48 -704 595.48 -8 15.48 -8"/><text x="305.48" y="-688.8" font-family="Times,serif" font-size="14" text-anchor="middle">Stage 1</text></g><g id="node1" class="node"><title>START</title><ellipse cx="190.48" cy="-656" fill="pink" stroke="#000" rx="27" ry="18"/><text x="190.48" y="-651.8" font-family="Times,serif" font-size="14" text-anchor="middle">start</text></g><g id="node2" class="node"><title>EXPR1</title><polygon fill="#d3d3d3" stroke="#000" points="116.955 -565.5 116.955 -601.5 264.006 -601.5 264.006 -565.5 116.955 -565.5"/><text x="190.48" y="-579.3" font-family="Times,serif" font-size="14" text-anchor="middle">Collection: pyodps_iris</text></g><g id="edge1" class="edge"><title>START-&gt;EXPR1</title><path fill="none" stroke="#000" d="M190.48,-637.934C190.48,-630.17 190.48,-620.784 190.48,-612.06"/><polygon fill="#000" stroke="#000" points="193.981 -611.899 190.48 -601.899 186.981 -611.899 193.981 -611.899"/></g><g id="node3" class="node"><title>EXPR2</title><polygon fill="none" stroke="#000" points="43.049 -256.5 43.049 -322.5 211.912 -322.5 211.912 -256.5 43.049 -256.5"/><text x="105.091" y="-307.3" font-family="Times,serif" font-size="14" text-anchor="middle">Column[Sequence]</text><polyline fill="none" stroke="#000" points="43.049 -300.5 167.132 -300.5"/><text x="105.091" y="-285.3" font-family="Times,serif" font-size="14" text-anchor="middle">name: name</text><polyline fill="none" stroke="#000" points="43.049 -278.5 167.132 -278.5"/><text x="105.091" y="-263.3" font-family="Times,serif" font-size="14" text-anchor="middle">type: STRING</text><polyline fill="none" stroke="#000" points="167.132 -256.5 167.132 -322.5"/><text x="189.522" y="-285.3" font-family="Times,serif" font-size="14" text-anchor="middle">input</text></g><g id="edge2" class="edge"><title>EXPR1-&gt;EXPR2:f0</title><path fill="none" stroke="#000" d="M154.824,-565.316C140.813,-556.553 126.246,-544.444 118.48,-529 76.5507,-445.606 181.412,-421.56 189.045,-333.213"/><polygon fill="#000" stroke="#000" points="192.551 -333.14 189.48 -323 185.557 -332.842 192.551 -333.14"/></g><g id="node4" class="node"><title>EXPR3</title><polygon fill="none" stroke="#000" points="127.049 -462.5 127.049 -528.5 295.912 -528.5 295.912 -462.5 127.049 -462.5"/><text x="189.091" y="-513.3" font-family="Times,serif" font-size="14" text-anchor="middle">Column[Sequence]</text><polyline fill="none" stroke="#000" points="127.049 -506.5 251.132 -506.5"/><text x="189.091" y="-491.3" font-family="Times,serif" font-size="14" text-anchor="middle">name: sepalwidth</text><polyline fill="none" stroke="#000" points="127.049 -484.5 251.132 -484.5"/><text x="189.091" y="-469.3" font-family="Times,serif" font-size="14" text-anchor="middle">type: FLOAT64</text><polyline fill="none" stroke="#000" points="251.132 -462.5 251.132 -528.5"/><text x="273.522" y="-491.3" font-family="Times,serif" font-size="14" text-anchor="middle">input</text></g><g id="edge3" class="edge"><title>EXPR1-&gt;EXPR3:f0</title><path fill="none" stroke="#000" d="M246.762,-565.467C258.326,-559.116 268.129,-550.581 271.864,-539.221"/><polygon fill="#000" stroke="#000" points="275.376 -539.424 273.48 -529 268.462 -538.331 275.376 -539.424"/></g><g id="node6" class="node"><title>EXPR5</title><polygon fill="none" stroke="#000" points="314.049 -462.5 314.049 -528.5 482.912 -528.5 482.912 -462.5 314.049 -462.5"/><text x="376.091" y="-513.3" font-family="Times,serif" font-size="14" text-anchor="middle">Column[Sequence]</text><polyline fill="none" stroke="#000" points="314.049 -506.5 438.132 -506.5"/><text x="376.091" y="-491.3" font-family="Times,serif" font-size="14" text-anchor="middle">name: name</text><polyline fill="none" stroke="#000" points="314.049 -484.5 438.132 -484.5"/><text x="376.091" y="-469.3" font-family="Times,serif" font-size="14" text-anchor="middle">type: STRING</text><polyline fill="none" stroke="#000" points="438.132 -462.5 438.132 -528.5"/><text x="460.522" y="-491.3" font-family="Times,serif" font-size="14" text-anchor="middle">input</text></g><g id="edge5" class="edge"><title>EXPR1-&gt;EXPR5:f0</title><path fill="none" stroke="#000" d="M264.259,-582.11C337.331,-579.85 440.763,-570.885 458.001,-538.706"/><polygon fill="#000" stroke="#000" points="461.396 -539.555 460.48 -529 454.614 -537.823 461.396 -539.555"/></g><g id="node10" class="node"><title>EXPR9</title><polygon fill="#d3d3d3" stroke="#000" points="23.908 -183.5 23.908 -219.5 425.053 -219.5 425.053 -183.5 23.908 -183.5"/><text x="91.787" y="-197.3" font-family="Times,serif" font-size="14" text-anchor="middle">GroupBy[Collection]</text><polyline fill="none" stroke="#000" points="159.666 -183.5 159.666 -219.5"/><text x="195.267" y="-197.3" font-family="Times,serif" font-size="14" text-anchor="middle">collection</text><polyline fill="none" stroke="#000" points="230.867 -183.5 230.867 -219.5"/><text x="248.591" y="-197.3" font-family="Times,serif" font-size="14" text-anchor="middle">bys</text><polyline fill="none" stroke="#000" points="266.315 -183.5 266.315 -219.5"/><text x="310.081" y="-197.3" font-family="Times,serif" font-size="14" text-anchor="middle">aggregations</text><polyline fill="none" stroke="#000" points="353.846 -183.5 353.846 -219.5"/><text x="389.45" y="-197.3" font-family="Times,serif" font-size="14" text-anchor="middle">selections</text></g><g id="edge9" class="edge"><title>EXPR1-&gt;EXPR9:f0</title><path fill="none" stroke="#000" d="M151.572,-565.285C135.401,-556.455 117.615,-544.302 105.48,-529 27.5815,-430.769 -43.9024,-353.845 34.4805,-256 77.9053,-201.793 183.528,-283.773 194.547,-230.246"/><polygon fill="#000" stroke="#000" points="198.058 -230.276 195.48 -220 191.087 -229.641 198.058 -230.276"/></g><g id="edge10" class="edge"><title>EXPR2-&gt;EXPR9:f1</title><path fill="none" stroke="#000" d="M207.853,-256.465C224.44,-247.979 238.785,-238.618 245.079,-229.446"/><polygon fill="#000" stroke="#000" points="248.385 -230.594 248.48 -220 241.799 -228.223 248.385 -230.594"/></g><g id="node5" class="node"><title>EXPR4</title><polygon fill="none" stroke="#000" points="229.565 -256.5 229.565 -322.5 379.396 -322.5 379.396 -256.5 229.565 -256.5"/><text x="282.091" y="-307.3" font-family="Times,serif" font-size="14" text-anchor="middle">Sum[Sequence]</text><polyline fill="none" stroke="#000" points="229.565 -300.5 334.617 -300.5"/><text x="282.091" y="-285.3" font-family="Times,serif" font-size="14" text-anchor="middle">name: id</text><polyline fill="none" stroke="#000" points="229.565 -278.5 334.617 -278.5"/><text x="282.091" y="-263.3" font-family="Times,serif" font-size="14" text-anchor="middle">type: FLOAT64</text><polyline fill="none" stroke="#000" points="334.617 -256.5 334.617 -322.5"/><text x="357.006" y="-285.3" font-family="Times,serif" font-size="14" text-anchor="middle">input</text></g><g id="edge4" class="edge"><title>EXPR3-&gt;EXPR4:f0</title><path fill="none" stroke="#000" d="M203.954,-462.475C198.883,-432.325 196.842,-387.636 220.48,-359 258.131,-313.388 345.952,-377.267 356.449,-332.971"/><polygon fill="#000" stroke="#000" points="359.932 -333.307 357.48 -323 352.97 -332.587 359.932 -333.307"/></g><g id="node7" class="node"><title>EXPR6</title><polygon fill="none" stroke="#000" points="229.565 -359.5 229.565 -425.5 379.396 -425.5 379.396 -359.5 229.565 -359.5"/><text x="282.091" y="-410.3" font-family="Times,serif" font-size="14" text-anchor="middle">Sum[Sequence]</text><polyline fill="none" stroke="#000" points="229.565 -403.5 334.617 -403.5"/><text x="282.091" y="-388.3" font-family="Times,serif" font-size="14" text-anchor="middle">name: id</text><polyline fill="none" stroke="#000" points="229.565 -381.5 334.617 -381.5"/><text x="282.091" y="-366.3" font-family="Times,serif" font-size="14" text-anchor="middle">type: FLOAT64</text><polyline fill="none" stroke="#000" points="334.617 -359.5 334.617 -425.5"/><text x="357.006" y="-388.3" font-family="Times,serif" font-size="14" text-anchor="middle">input</text></g><g id="edge6" class="edge"><title>EXPR3-&gt;EXPR6:f0</title><path fill="none" stroke="#000" d="M295.563,-462.376C318.89,-452.539 340.671,-442.209 351.078,-434.188"/><polygon fill="#000" stroke="#000" points="354.078 -436.034 357.48 -426 348.563 -431.722 354.078 -436.034"/></g><g id="edge11" class="edge"><title>EXPR4-&gt;EXPR9:f3</title><path fill="none" stroke="#000" d="M308.449,-256.49C309.251,-248.233 309.95,-239.162 310.279,-230.28"/><polygon fill="#000" stroke="#000" points="313.784 -230.067 310.48 -220 306.785 -229.93 313.784 -230.067"/></g><g id="edge12" class="edge"><title>EXPR5-&gt;EXPR9:f4</title><path fill="none" stroke="#000" d="M396.745,-462.393C394.229,-413.109 389.832,-315.537 389.5,-230.089"/><polygon fill="#000" stroke="#000" points="393 -229.993 389.48 -220 386 -230.007 393 -229.993"/></g><g id="node9" class="node"><title>EXPR8</title><polygon fill="none" stroke="#000" points="417.23 -256.5 417.23 -322.5 587.73 -322.5 587.73 -256.5 417.23 -256.5"/><text x="469.756" y="-307.3" font-family="Times,serif" font-size="14" text-anchor="middle">Add[Sequence]</text><polyline fill="none" stroke="#000" points="417.23 -300.5 522.282 -300.5"/><text x="469.756" y="-285.3" font-family="Times,serif" font-size="14" text-anchor="middle">name: id</text><polyline fill="none" stroke="#000" points="417.23 -278.5 522.282 -278.5"/><text x="469.756" y="-263.3" font-family="Times,serif" font-size="14" text-anchor="middle">type: FLOAT64</text><polyline fill="none" stroke="#000" points="522.282 -256.5 522.282 -322.5"/><text x="538.451" y="-285.3" font-family="Times,serif" font-size="14" text-anchor="middle">lhs</text><polyline fill="none" stroke="#000" points="554.62 -256.5 554.62 -322.5"/><text x="571.175" y="-285.3" font-family="Times,serif" font-size="14" text-anchor="middle">rhs</text></g><g id="edge7" class="edge"><title>EXPR6-&gt;EXPR8:f0</title><path fill="none" stroke="#000" d="M379.485,-383.986C440.978,-375.898 520.315,-360.322 535.796,-332.799"/><polygon fill="#000" stroke="#000" points="539.214 -333.569 538.48 -323 532.463 -331.72 539.214 -333.569"/></g><g id="node8" class="node"><title>EXPR7</title><polygon fill="none" stroke="#000" points="521.796 -374.5 521.796 -410.5 587.165 -410.5 587.165 -374.5 521.796 -374.5"/><text x="554.48" y="-388.3" font-family="Times,serif" font-size="14" text-anchor="middle">Scalar: 3</text></g><g id="edge8" class="edge"><title>EXPR7-&gt;EXPR8:f1</title><path fill="none" stroke="#000" d="M561.199,-374.336C565.06,-363.219 569.434,-348.087 570.939,-333.208"/><polygon fill="#000" stroke="#000" points="574.446 -333.171 571.48 -323 567.455 -332.8 574.446 -333.171"/></g><g id="edge13" class="edge"><title>EXPR8-&gt;EXPR9:f4</title><path fill="none" stroke="#000" d="M489.654,-256.104C478.912,-234.268 461.347,-208.43 436.68,-202.674"/><polygon fill="#000" stroke="#000" points="436.815 -199.167 426.48 -201.5 436.015 -206.121 436.815 -199.167"/></g><g id="node11" class="node"><title>COMPILED9</title><polygon fill="#87ceeb" stroke="#000" points="96.481 -16.5 96.481 -146.5 352.48 -146.5 352.48 -16.5 96.481 -16.5"/><text x="108.48" y="-127.3" font-family="Times,serif" font-size="14" text-anchor="start">SELECT</text><text x="108.48" y="-107.3" font-family="Times,serif" font-size="14" text-anchor="start">t1.`name`,</text><text x="108.48" y="-87.3" font-family="Times,serif" font-size="14" text-anchor="start">SUM(t1.`sepalwidth`) + 3 AS `id`</text><text x="108.266" y="-67.3" font-family="Times,serif" font-size="14" text-anchor="start">FROM test_pyodps_dev.`pyodps_iris` t1</text><text x="108.48" y="-47.3" font-family="Times,serif" font-size="14" text-anchor="start">GROUP BY</text><text x="108.48" y="-27.3" font-family="Times,serif" font-size="14" text-anchor="start">t1.`name`</text></g><g id="edge14" class="edge"><title>EXPR9-&gt;COMPILED9</title><path fill="none" stroke="#000" stroke-dasharray="5 2" d="M224.48,-183.342C224.48,-173.434 224.48,-160.283 224.48,-146.761"/></g></g></svg>