<svg xmlns="http://www.w3.org/2000/svg" xmlns:xlink="http://www.w3.org/1999/xlink" width="376pt" height="724" viewBox="0 0 375.5 543"><g id="graph0" class="graph" transform="scale(1 1) rotate(0) translate(4 539)"><title>%3</title><polygon fill="#fff" stroke="none" points="-4 4 -4 -539 371.5 -539 371.5 4 -4 4"/><g id="node1" class="node"><title>root</title><polygon fill="none" stroke="#000" points="70 -498.5 70 -534.5 126 -534.5 126 -498.5 70 -498.5"/><text x="98" y="-512.8" font-family="Times New Roman,serif" font-size="14" text-anchor="middle">ROOT</text></g><g id="node2" class="node"><title>struct1</title><polygon fill="#e0eeee" stroke="#000" points="0 -415.5 0 -461.5 82 -461.5 82 -415.5 0 -415.5"/><text x="36.5" y="-445.7" font-family="Times New Roman,serif" font-size="16" text-anchor="start">0</text><text x="17" y="-433.7" font-family="Times New Roman,serif" font-size="11" text-anchor="start">`a01` &lt; 0.5</text><text x="8" y="-422.7" font-family="Times New Roman,serif" font-size="11" text-anchor="start">LABELS: 0:25</text></g><g id="edge1" class="edge"><title>root-&gt;struct1</title><path fill="none" stroke="#000" d="M85.0658,-498.254C78.7655,-489.854 71.0011,-479.501 63.7539,-469.839"/><polygon fill="#000" stroke="#000" points="66.368 -467.491 57.568 -461.591 60.768 -471.691 66.368 -467.491"/></g><g id="node3" class="node"><title>struct2</title><polygon fill="none" stroke="#000" points="100 -420.5 100 -456.5 210 -456.5 210 -420.5 100 -420.5"/><text x="131" y="-441.7" font-family="Times New Roman,serif" font-size="11" text-anchor="start">`a01` ≥ 0.5</text><text x="108" y="-429.7" font-family="Times New Roman,serif" font-size="11" text-anchor="start">LABELS: 0:57, 1:134</text></g><g id="edge12" class="edge"><title>root-&gt;struct2</title><path fill="none" stroke="#000" d="M110.934,-498.254C118.368,-488.343 127.839,-475.714 136.095,-464.707"/><polygon fill="#000" stroke="#000" points="138.917 -466.777 142.117 -456.677 133.317 -462.577 138.917 -466.777"/></g><g id="node4" class="node"><title>struct3</title><polygon fill="#e0eeee" stroke="#000" points="51 -332.5 51 -378.5 141 -378.5 141 -332.5 51 -332.5"/><text x="91.5" y="-362.7" font-family="Times New Roman,serif" font-size="16" text-anchor="start">0</text><text x="59" y="-350.7" font-family="Times New Roman,serif" font-size="11" text-anchor="start">`a03` &lt; 0.591635</text><text x="63" y="-339.7" font-family="Times New Roman,serif" font-size="11" text-anchor="start">LABELS: 0:22</text></g><g id="edge2" class="edge"><title>struct2-&gt;struct3</title><path fill="none" stroke="#000" d="M142.488,-420.322C135.425,-410.626 126.393,-398.226 118.171,-386.938"/><polygon fill="#000" stroke="#000" points="120.805 -384.609 112.088 -378.587 115.147 -388.731 120.805 -384.609"/></g><g id="node5" class="node"><title>struct4</title><polygon fill="none" stroke="#000" points="159 -337.5 159 -373.5 269 -373.5 269 -337.5 159 -337.5"/><text x="177" y="-358.7" font-family="Times New Roman,serif" font-size="11" text-anchor="start">`a03` ≥ 0.591635</text><text x="167" y="-346.7" font-family="Times New Roman,serif" font-size="11" text-anchor="start">LABELS: 0:35, 1:134</text></g><g id="edge11" class="edge"><title>struct2-&gt;struct4</title><path fill="none" stroke="#000" d="M167.512,-420.322C175.648,-409.153 186.397,-394.395 195.51,-381.884"/><polygon fill="#000" stroke="#000" points="198.447 -383.797 201.506 -373.653 192.789 -379.676 198.447 -383.797"/></g><g id="node6" class="node"><title>struct5</title><polygon fill="none" stroke="#000" points="98.5 -254.5 98.5 -290.5 203.5 -290.5 203.5 -254.5 98.5 -254.5"/><text x="114" y="-275.7" font-family="Times New Roman,serif" font-size="11" text-anchor="start">`a03` &lt; 0.869735</text><text x="106.5" y="-263.7" font-family="Times New Roman,serif" font-size="11" text-anchor="start">LABELS: 0:16, 1:31</text></g><g id="edge9" class="edge"><title>struct4-&gt;struct5</title><path fill="none" stroke="#000" d="M200.639,-337.322C191.953,-326.153 180.474,-311.395 170.743,-298.884"/><polygon fill="#000" stroke="#000" points="173.244 -296.398 164.341 -290.653 167.718 -300.696 173.244 -296.398"/></g><g id="node13" class="node"><title>struct12</title><polygon fill="#e0eeee" stroke="#000" points="222 -249.5 222 -295.5 332 -295.5 332 -249.5 222 -249.5"/><text x="272.5" y="-279.7" font-family="Times New Roman,serif" font-size="16" text-anchor="start">1</text><text x="240" y="-267.7" font-family="Times New Roman,serif" font-size="11" text-anchor="start">`a03` ≥ 0.869735</text><text x="230" y="-256.7" font-family="Times New Roman,serif" font-size="11" text-anchor="start">LABELS: 0:19, 1:103</text></g><g id="edge10" class="edge"><title>struct4-&gt;struct12</title><path fill="none" stroke="#000" d="M227.361,-337.322C234.976,-327.531 244.736,-314.982 253.584,-303.606"/><polygon fill="#000" stroke="#000" points="256.445 -305.629 259.821 -295.587 250.919 -301.332 256.445 -305.629"/></g><g id="node7" class="node"><title>struct6</title><polygon fill="#e0eeee" stroke="#000" points="39.5 -166.5 39.5 -212.5 144.5 -212.5 144.5 -166.5 39.5 -166.5"/><text x="87.5" y="-196.7" font-family="Times New Roman,serif" font-size="16" text-anchor="start">1</text><text x="55" y="-184.7" font-family="Times New Roman,serif" font-size="11" text-anchor="start">`a03` &lt; 0.842615</text><text x="47.5" y="-173.7" font-family="Times New Roman,serif" font-size="11" text-anchor="start">LABELS: 0:11, 1:29</text></g><g id="edge3" class="edge"><title>struct5-&gt;struct6</title><path fill="none" stroke="#000" d="M138.488,-254.322C131.425,-244.626 122.393,-232.226 114.171,-220.938"/><polygon fill="#000" stroke="#000" points="116.805 -218.609 108.088 -212.587 111.147 -222.731 116.805 -218.609"/></g><g id="node8" class="node"><title>struct7</title><polygon fill="none" stroke="#000" points="162.5 -171.5 162.5 -207.5 257.5 -207.5 257.5 -171.5 162.5 -171.5"/><text x="173" y="-192.7" font-family="Times New Roman,serif" font-size="11" text-anchor="start">`a03` ≥ 0.842615</text><text x="170.5" y="-180.7" font-family="Times New Roman,serif" font-size="11" text-anchor="start">LABELS: 0:5, 1:2</text></g><g id="edge8" class="edge"><title>struct5-&gt;struct7</title><path fill="none" stroke="#000" d="M163.512,-254.322C171.648,-243.153 182.397,-228.395 191.51,-215.884"/><polygon fill="#000" stroke="#000" points="194.447 -217.797 197.506 -207.653 188.789 -213.676 194.447 -217.797"/></g><g id="node9" class="node"><title>struct8</title><polygon fill="#e0eeee" stroke="#000" points="109 -83.5 109 -129.5 199 -129.5 199 -83.5 109 -83.5"/><text x="149.5" y="-113.7" font-family="Times New Roman,serif" font-size="16" text-anchor="start">1</text><text x="117" y="-101.7" font-family="Times New Roman,serif" font-size="11" text-anchor="start">`a04` &lt; 0.391767</text><text x="123.5" y="-90.7" font-family="Times New Roman,serif" font-size="11" text-anchor="start">LABELS: 1:1</text></g><g id="edge4" class="edge"><title>struct7-&gt;struct8</title><path fill="none" stroke="#000" d="M198.124,-171.322C191.421,-161.626 182.847,-149.226 175.044,-137.938"/><polygon fill="#000" stroke="#000" points="177.836 -135.822 169.27 -129.587 172.078 -139.803 177.836 -135.822"/></g><g id="node10" class="node"><title>struct9</title><polygon fill="none" stroke="#000" points="217.5 -88.5 217.5 -124.5 312.5 -124.5 312.5 -88.5 217.5 -88.5"/><text x="228" y="-109.7" font-family="Times New Roman,serif" font-size="11" text-anchor="start">`a04` ≥ 0.391767</text><text x="225.5" y="-97.7" font-family="Times New Roman,serif" font-size="11" text-anchor="start">LABELS: 0:5, 1:1</text></g><g id="edge7" class="edge"><title>struct7-&gt;struct9</title><path fill="none" stroke="#000" d="M221.664,-171.322C229.175,-160.261 239.076,-145.679 247.518,-133.246"/><polygon fill="#000" stroke="#000" points="250.631 -134.892 253.353 -124.653 244.84 -130.96 250.631 -134.892"/></g><g id="node11" class="node"><title>struct10</title><polygon fill="#e0eeee" stroke="#000" points="164 -.5 164 -46.5 254 -46.5 254 -.5 164 -.5"/><text x="204.5" y="-30.7" font-family="Times New Roman,serif" font-size="16" text-anchor="start">0</text><text x="172" y="-18.7" font-family="Times New Roman,serif" font-size="11" text-anchor="start">`a03` &lt; 0.859168</text><text x="178.5" y="-7.7" font-family="Times New Roman,serif" font-size="11" text-anchor="start">LABELS: 0:3</text></g><g id="edge5" class="edge"><title>struct9-&gt;struct10</title><path fill="none" stroke="#000" d="M253.124,-88.322C246.421,-78.6264 237.847,-66.2256 230.044,-54.9381"/><polygon fill="#000" stroke="#000" points="232.836 -52.822 224.27 -46.587 227.078 -56.803 232.836 -52.822"/></g><g id="node12" class="node"><title>struct11</title><polygon fill="#e0eeee" stroke="#000" points="272.5 -.5 272.5 -46.5 367.5 -46.5 367.5 -.5 272.5 -.5"/><text x="315.5" y="-30.7" font-family="Times New Roman,serif" font-size="16" text-anchor="start">0</text><text x="283" y="-18.7" font-family="Times New Roman,serif" font-size="11" text-anchor="start">`a03` ≥ 0.859168</text><text x="280.5" y="-7.7" font-family="Times New Roman,serif" font-size="11" text-anchor="start">LABELS: 0:2, 1:1</text></g><g id="edge6" class="edge"><title>struct9-&gt;struct11</title><path fill="none" stroke="#000" d="M276.664,-88.322C283.248,-78.6264 291.668,-66.2256 299.332,-54.9381"/><polygon fill="#000" stroke="#000" points="302.281 -56.826 305.003 -46.587 296.49 -52.894 302.281 -56.826"/></g></g></svg>